<?xml version="1.0" encoding="utf-8"?>
<!-- Generator: Adobe Illustrator 16.0.0, SVG Export Plug-In . SVG Version: 6.00 Build 0)  -->
<!DOCTYPE svg PUBLIC "-//W3C//DTD SVG 1.1//EN" "http://www.w3.org/Graphics/SVG/1.1/DTD/svg11.dtd">
<svg version="1.1" id="Layer_1" xmlns="http://www.w3.org/2000/svg" xmlns:xlink="http://www.w3.org/1999/xlink" x="0px" y="0px"
	 width="1728px" height="576px" viewBox="0 0 1728 576" enable-background="new 0 0 1728 576" xml:space="preserve">
<g>
	<defs>
		<rect id="SVGID_1_" width="1728" height="576"/>
	</defs>
	<clipPath id="SVGID_2_">
		<use xlink:href="#SVGID_1_"  overflow="visible"/>
	</clipPath>
	<rect x="0.5" y="0.5" clip-path="url(#SVGID_2_)" fill="none" stroke="#000000" width="1727" height="575"/>
	<rect x="0.5" y="0.5" clip-path="url(#SVGID_2_)" fill="none" stroke="#240C0D" width="1727" height="575"/>
</g>
<g>
	<path fill="#FFFFFF" d="M975.868,496.678v-46.08h6.656l15.104,40.64h0.128l14.848-40.64h6.593v46.08h-4.353V455.59h-0.128
		l-15.104,41.088h-4.097l-15.168-41.088h-0.128v41.088H975.868z"/>
	<path fill="#FFFFFF" d="M1027.579,473.702c0-3.37,0.458-6.528,1.376-9.473c0.917-2.943,2.272-5.514,4.064-7.712
		c1.792-2.197,4.01-3.936,6.656-5.216c2.645-1.28,5.695-1.92,9.151-1.92c3.584,0,6.73,0.63,9.44,1.888
		c2.709,1.259,4.97,2.987,6.784,5.185c1.812,2.197,3.178,4.778,4.096,7.743c0.917,2.967,1.376,6.135,1.376,9.505
		c0,3.327-0.459,6.453-1.376,9.376c-0.918,2.923-2.271,5.482-4.063,7.68c-1.793,2.198-4.032,3.936-6.721,5.216
		c-2.688,1.28-5.803,1.92-9.344,1.92c-3.542,0-6.656-0.64-9.344-1.92c-2.688-1.28-4.929-3.018-6.721-5.216
		c-1.792-2.197-3.136-4.757-4.031-7.68C1028.027,480.155,1027.579,477.029,1027.579,473.702z M1049.084,494.182
		c2.985,0,5.557-0.564,7.712-1.696c2.153-1.13,3.925-2.634,5.312-4.512c1.386-1.877,2.41-4.053,3.072-6.528
		c0.661-2.474,0.992-5.056,0.992-7.743c0-3.2-0.396-6.069-1.185-8.608c-0.79-2.538-1.931-4.704-3.424-6.496
		c-1.494-1.792-3.307-3.157-5.44-4.096s-4.522-1.408-7.168-1.408c-2.943,0-5.493,0.576-7.647,1.728
		c-2.155,1.152-3.926,2.679-5.312,4.576c-1.387,1.899-2.41,4.086-3.071,6.561c-0.662,2.475-0.992,5.056-0.992,7.744
		c0,2.73,0.33,5.334,0.992,7.808c0.661,2.475,1.685,4.651,3.071,6.528c1.387,1.878,3.157,3.371,5.312,4.479
		C1043.462,493.628,1046.054,494.182,1049.084,494.182z"/>
	<path fill="#FFFFFF" d="M1080.955,482.918c0.171,2.048,0.63,3.787,1.376,5.216c0.746,1.43,1.706,2.592,2.881,3.488
		c1.173,0.896,2.527,1.547,4.063,1.952s3.178,0.607,4.928,0.607c2.049,0,3.818-0.256,5.312-0.768
		c1.493-0.513,2.709-1.205,3.647-2.08c0.938-0.874,1.633-1.889,2.08-3.04c0.448-1.152,0.672-2.368,0.672-3.648
		c0-1.792-0.405-3.242-1.216-4.352s-1.867-2.017-3.168-2.72c-1.302-0.704-2.795-1.27-4.479-1.696
		c-1.687-0.426-3.414-0.842-5.185-1.248c-1.771-0.405-3.499-0.885-5.184-1.44c-1.687-0.554-3.179-1.301-4.48-2.239
		s-2.357-2.145-3.168-3.616c-0.811-1.473-1.216-3.338-1.216-5.601c0-1.578,0.33-3.113,0.992-4.607
		c0.661-1.493,1.642-2.816,2.944-3.968c1.301-1.152,2.933-2.069,4.896-2.753c1.962-0.682,4.225-1.023,6.784-1.023
		c2.602,0,4.874,0.363,6.816,1.088c1.94,0.726,3.552,1.718,4.831,2.976c1.28,1.26,2.24,2.721,2.881,4.385
		c0.64,1.664,0.96,3.435,0.96,5.312h-4.16c0-1.749-0.311-3.264-0.928-4.544c-0.619-1.28-1.463-2.325-2.528-3.136
		c-1.067-0.811-2.283-1.408-3.648-1.792s-2.773-0.576-4.224-0.576c-2.219,0-4.086,0.31-5.6,0.928
		c-1.516,0.619-2.721,1.419-3.616,2.4c-0.896,0.981-1.516,2.07-1.856,3.264c-0.342,1.195-0.406,2.391-0.191,3.584
		c0.256,1.494,0.853,2.688,1.792,3.584c0.938,0.896,2.09,1.632,3.456,2.208c1.364,0.576,2.868,1.046,4.512,1.408
		c1.642,0.363,3.316,0.747,5.023,1.152c1.706,0.405,3.36,0.886,4.96,1.439c1.601,0.556,3.019,1.302,4.257,2.24
		c1.236,0.939,2.229,2.144,2.976,3.616c0.746,1.472,1.12,3.317,1.12,5.536c0,4.267-1.472,7.573-4.416,9.92
		c-2.944,2.346-7.083,3.52-12.416,3.52c-2.39,0-4.608-0.31-6.656-0.928s-3.818-1.557-5.312-2.816
		c-1.494-1.258-2.656-2.815-3.488-4.672c-0.832-1.855-1.248-4.042-1.248-6.56H1080.955z"/>
	<path fill="#FFFFFF" d="M1114.107,450.598h33.535v3.712h-14.592v42.368h-4.352V454.31h-14.592V450.598z"/>
</g>
<g>
	<path fill="#FFFFFF" d="M1214.114,443.562c3.75,1.328,6.497,3.764,8.242,7.305c1.406,2.865,2.115,5.964,2.129,9.297
		c0.013,3.334-0.293,6.511-0.918,9.531c-1.641,7.656-4.558,14.141-8.75,19.453c-5.678,7.162-12.865,10.742-21.562,10.742h-24.805
		l12.227-57.578h24.805C1209.022,442.364,1211.9,442.78,1214.114,443.562z M1190.208,452.312l-7.969,37.578h11.094
		c5.677,0,10.234-2.799,13.672-8.398c1.875-3.072,3.255-6.731,4.141-10.977c1.25-5.859,1.289-10.357,0.117-13.496
		c-1.172-3.138-4.492-4.707-9.961-4.707H1190.208z"/>
	<path fill="#FFFFFF" d="M1248.534,442.312h13.594l8.164,57.578h-13.047l-1.211-11.836h-21.211l-6.484,11.836h-12.578
		L1248.534,442.312z M1240.175,478.132h14.609l-2.383-22.656L1240.175,478.132z"/>
	<path fill="#FFFFFF" d="M1283.229,442.312h12.617l14.375,40.195l8.555-40.195h11.211l-12.227,57.578h-12.031l-14.844-40.898
		l-8.672,40.898h-11.211L1283.229,442.312z"/>
	<path fill="#FFFFFF" d="M1369.68,460.28c-0.078-3.932-1.719-6.68-4.922-8.242c-1.797-0.859-3.906-1.289-6.328-1.289
		c-4.636,0-8.815,1.752-12.539,5.254c-3.725,3.503-6.342,8.77-7.852,15.801c-1.484,7.084-0.932,12.097,1.66,15.039
		c2.591,2.943,5.943,4.414,10.059,4.414c4.036,0,7.598-1.165,10.684-3.496c3.086-2.33,5.318-5.384,6.699-9.16h-13.32l2.07-9.609
		h23.984l-6.562,30.898h-7.969l0.312-7.188c-2.917,2.734-5.417,4.662-7.5,5.781c-3.594,1.953-7.709,2.93-12.344,2.93
		c-7.631,0-13.32-2.643-17.07-7.93c-3.933-5.312-4.922-12.578-2.969-21.797c1.979-9.322,6.133-16.797,12.461-22.422
		s13.711-8.438,22.148-8.438c7.317,0,12.799,1.855,16.445,5.566c3.646,3.711,5.208,8.34,4.688,13.887H1369.68z"/>
	<path fill="#FFFFFF" d="M1431.095,452.507h-30.469l-2.578,12.227h27.969l-2.148,10h-27.969l-3.125,14.805h31.875l-2.188,10.352
		h-43.633l12.227-57.578h42.227L1431.095,452.507z"/>
	<path fill="#FFFFFF" d="M1479.931,447.819c0.938,1.459,1.582,3.073,1.934,4.844c0.352,1.771,0.293,3.789-0.176,6.055
		c-0.6,2.734-1.869,5.424-3.809,8.066c-1.94,2.644-4.616,4.512-8.027,5.605c2.422,1.068,3.978,2.585,4.668,4.551
		c0.689,1.967,0.605,4.968-0.254,9.004l-0.82,3.867c-0.547,2.631-0.82,4.414-0.82,5.352c0,1.484,0.494,2.578,1.484,3.281
		l-0.273,1.445h-13.242c-0.104-1.275-0.156-2.305-0.156-3.086c0.025-1.614,0.208-3.268,0.547-4.961l1.055-5.352
		c0.729-3.672,0.579-6.119-0.449-7.344c-1.029-1.224-3.314-1.836-6.855-1.836h-12.422l-4.766,22.578h-11.758l12.227-57.578h28.242
		c4.01,0.078,7.005,0.573,8.984,1.484C1477.222,444.708,1478.784,446.049,1479.931,447.819z M1447.626,452.312l-3.281,15.469h13.633
		c2.708,0,4.805-0.312,6.289-0.938c2.63-1.094,4.297-3.255,5-6.484c0.729-3.489,0.064-5.833-1.992-7.031
		c-1.172-0.677-3.061-1.016-5.664-1.016H1447.626z"/>
	<path fill="#FFFFFF" d="M1522.28,494.772c-5.287,4.479-12.045,6.719-20.273,6.719c-8.229,0-14.05-2.239-17.461-6.719
		c-4.662-5.494-5.886-13.411-3.672-23.75c2.239-10.547,6.836-18.463,13.789-23.75c5.286-4.479,12.044-6.719,20.273-6.719
		c8.229,0,14.049,2.24,17.461,6.719c4.688,5.287,5.911,13.203,3.672,23.75C1533.855,481.361,1529.259,489.278,1522.28,494.772z
		 M1524.038,471.022c1.354-6.458,1.009-11.451-1.035-14.98c-2.045-3.528-5.449-5.293-10.215-5.293s-8.939,1.758-12.52,5.273
		c-3.581,3.516-6.062,8.516-7.441,15c-1.381,6.484-1.029,11.484,1.055,15c2.083,3.516,5.508,5.273,10.273,5.273
		s8.926-1.758,12.48-5.273S1522.657,477.507,1524.038,471.022z"/>
	<path fill="#FFFFFF" d="M1545.023,442.312h12.227l-7.539,35.391c-0.834,3.959-0.977,6.85-0.43,8.672
		c0.781,3.229,3.619,4.844,8.516,4.844c4.869,0,8.372-1.614,10.508-4.844c1.328-1.822,2.408-4.713,3.242-8.672l7.539-35.391h12.227
		l-7.539,35.391c-1.303,6.12-3.269,10.886-5.898,14.297c-4.87,6.25-12.292,9.375-22.266,9.375c-9.975,0-16.081-3.125-18.32-9.375
		c-1.172-3.411-1.107-8.177,0.195-14.297L1545.023,442.312z"/>
	<path fill="#FFFFFF" d="M1596.631,482.116c-0.183,2.631,0.117,4.597,0.898,5.898c1.458,2.37,4.557,3.555,9.297,3.555
		c2.838,0,5.208-0.312,7.109-0.938c3.619-1.197,5.768-3.424,6.445-6.68c0.416-1.9-0.104-3.372-1.562-4.414
		c-1.433-1.016-3.854-1.914-7.266-2.695l-5.82-1.367c-5.703-1.354-9.531-2.825-11.484-4.414c-3.308-2.656-4.362-6.81-3.164-12.461
		c1.094-5.156,3.88-9.439,8.359-12.852c4.479-3.411,10.352-5.117,17.617-5.117c6.067,0,10.898,1.608,14.492,4.824
		c3.594,3.217,4.844,7.885,3.75,14.004h-11.562c0.547-3.463-0.43-5.924-2.93-7.383c-1.667-0.963-3.894-1.445-6.68-1.445
		c-3.1,0-5.71,0.625-7.832,1.875c-2.123,1.25-3.418,2.995-3.887,5.234c-0.443,2.058,0.143,3.594,1.758,4.609
		c1.016,0.678,3.346,1.472,6.992,2.383l9.414,2.383c4.114,1.042,7.096,2.436,8.945,4.18c2.864,2.709,3.75,6.628,2.656,11.758
		c-1.12,5.261-4.062,9.629-8.828,13.105s-10.82,5.215-18.164,5.215c-7.5,0-13.034-1.712-16.602-5.137
		c-3.568-3.424-4.714-8.131-3.438-14.121H1596.631z"/>
</g>
<g>
	<path fill="#FFFFFF" d="M80.083,64.083c1.25,2.448,1.523,5.378,0.82,8.789c-0.756,3.516-2.253,6.342-4.492,8.477
		c-1.225,1.198-2.904,2.292-5.039,3.281c2.708,1.068,4.563,2.761,5.566,5.078c1.002,2.318,1.152,5.131,0.449,8.438
		c-0.729,3.412-2.24,6.472-4.531,9.18c-1.484,1.797-3.178,3.308-5.078,4.531c-2.136,1.406-4.512,2.37-7.129,2.891
		c-2.617,0.521-5.397,0.781-8.34,0.781H26.216L38.443,57.95h27.969C73.443,58.054,78,60.098,80.083,64.083z M43.052,90.176
		l-3.242,15.352h14.141c2.525,0,4.557-0.338,6.094-1.016c2.838-1.25,4.635-3.646,5.391-7.188c0.625-2.994-0.183-5.052-2.422-6.172
		c-1.25-0.625-3.125-0.95-5.625-0.977H43.052z M47.779,67.95l-2.695,12.695h14.141c2.525,0,4.681-0.475,6.465-1.426
		c1.783-0.95,2.936-2.637,3.457-5.059c0.547-2.682-0.117-4.453-1.992-5.312c-1.693-0.599-3.933-0.898-6.719-0.898H47.779z"/>
	<path fill="#FFFFFF" d="M136.412,68.145h-30.469l-2.578,12.227h27.969l-2.148,10h-27.969l-3.125,14.805h31.875l-2.188,10.352
		H84.146L96.373,57.95h42.227L136.412,68.145z"/>
	<path fill="#FFFFFF" d="M157.232,57.95l0.586,32.969l-0.312,9.18l3.594-8.984l13.555-33.164h12.695l-0.195,32.969l-0.195,9.18
		l3.633-8.828l14.805-33.32h12.227l-28.438,57.578h-11.484l0.195-33.672l0.312-11.133l-4.375,11.133l-14.102,33.672H148.56
		l-4.102-57.578H157.232z"/>
	<path fill="#FFFFFF" d="M237.053,57.95h13.594l8.164,57.578h-13.047l-1.211-11.836h-21.211l-6.484,11.836h-12.578L237.053,57.95z
		 M228.693,93.77h14.609l-2.383-22.656L228.693,93.77z"/>
	<path fill="#FFFFFF" d="M320.529,63.458c0.938,1.459,1.582,3.073,1.934,4.844c0.352,1.771,0.293,3.789-0.176,6.055
		c-0.6,2.734-1.869,5.424-3.809,8.066c-1.94,2.644-4.616,4.512-8.027,5.605c2.422,1.068,3.978,2.585,4.668,4.551
		c0.689,1.967,0.605,4.968-0.254,9.004l-0.82,3.867c-0.547,2.631-0.82,4.414-0.82,5.352c0,1.484,0.494,2.578,1.484,3.281
		l-0.273,1.445h-13.242c-0.104-1.275-0.156-2.305-0.156-3.086c0.025-1.614,0.208-3.268,0.547-4.961l1.055-5.352
		c0.729-3.672,0.579-6.119-0.449-7.344c-1.029-1.224-3.314-1.836-6.855-1.836h-12.422l-4.766,22.578h-11.758l12.227-57.578h28.242
		c4.01,0.078,7.005,0.573,8.984,1.484C317.82,60.346,319.383,61.687,320.529,63.458z M288.225,67.95l-3.281,15.469h13.633
		c2.708,0,4.805-0.312,6.289-0.938c2.63-1.094,4.297-3.255,5-6.484c0.729-3.489,0.064-5.833-1.992-7.031
		c-1.172-0.677-3.061-1.016-5.664-1.016H288.225z"/>
	<path fill="#FFFFFF" d="M376.506,68.145h-30.469l-2.578,12.227h27.969l-2.148,10h-27.969l-3.125,14.805h31.875l-2.188,10.352
		H324.24l12.227-57.578h42.227L376.506,68.145z"/>
</g>
<g>
	<path fill="#FFFFFF" d="M299.344,143.564c-1.305,1.344-3.191,2.016-5.66,2.016s-4.355-0.672-5.66-2.016
		c-1.75-1.648-2.625-4.023-2.625-7.125c0-3.164,0.875-5.539,2.625-7.125c1.305-1.344,3.191-2.016,5.66-2.016s4.355,0.672,5.66,2.016
		c1.742,1.586,2.613,3.961,2.613,7.125C301.957,139.541,301.086,141.916,299.344,143.564z M297.088,140.939
		c0.84-1.055,1.26-2.555,1.26-4.5c0-1.938-0.42-3.436-1.26-4.494s-1.975-1.588-3.404-1.588s-2.57,0.527-3.422,1.582
		s-1.277,2.555-1.277,4.5s0.426,3.445,1.277,4.5s1.992,1.582,3.422,1.582S296.248,141.994,297.088,140.939z"/>
	<path fill="#FFFFFF" d="M304.711,127.849h12.316v3.035h-8.73v3.973h7.652v3h-7.652v7.242h-3.586V127.849z"/>
</g>
<g>
	<path fill="#FFFFFF" d="M328.461,143.917h10.195l6.123,43.184h-9.785l-0.908-8.877h-15.908l-4.863,8.877h-9.434L328.461,143.917z
		 M322.192,170.783h10.957l-1.787-16.992L322.192,170.783z"/>
	<path fill="#FFFFFF" d="M391.069,148.048c0.703,1.094,1.187,2.305,1.45,3.633c0.264,1.329,0.22,2.842-0.132,4.541
		c-0.45,2.051-1.402,4.068-2.856,6.05c-1.455,1.982-3.462,3.384-6.021,4.204c1.816,0.801,2.983,1.938,3.501,3.413
		c0.517,1.475,0.454,3.726-0.19,6.753l-0.615,2.9c-0.41,1.973-0.615,3.311-0.615,4.014c0,1.113,0.371,1.934,1.113,2.461
		l-0.205,1.084h-9.932c-0.078-0.957-0.117-1.729-0.117-2.314c0.019-1.211,0.156-2.451,0.41-3.721l0.791-4.014
		c0.546-2.754,0.435-4.589-0.337-5.508c-0.772-0.918-2.486-1.377-5.142-1.377h-9.316l-3.574,16.934h-8.818l9.17-43.184h21.182
		c3.007,0.059,5.254,0.43,6.738,1.113C389.037,145.715,390.209,146.72,391.069,148.048z M366.84,151.417l-2.461,11.602h10.225
		c2.031,0,3.604-0.234,4.717-0.703c1.973-0.82,3.223-2.441,3.75-4.863c0.546-2.617,0.048-4.375-1.494-5.273
		c-0.879-0.508-2.295-0.762-4.248-0.762H366.84z"/>
	<path fill="#FFFFFF" d="M434.135,143.917l-1.641,7.646h-12.92l-7.529,35.537h-9.082l7.529-35.537h-12.979l1.641-7.646H434.135z"/>
	<path fill="#FFFFFF" d="M438.5,187.101h-8.965l9.17-43.184h8.965L438.5,187.101z"/>
	<path fill="#FFFFFF" d="M456.254,173.771c-0.137,1.973,0.088,3.447,0.674,4.424c1.094,1.777,3.417,2.666,6.973,2.666
		c2.128,0,3.906-0.234,5.332-0.703c2.714-0.898,4.326-2.568,4.834-5.01c0.312-1.425-0.078-2.529-1.172-3.311
		c-1.074-0.762-2.891-1.436-5.449-2.021l-4.365-1.025c-4.277-1.015-7.148-2.119-8.613-3.311c-2.48-1.992-3.271-5.107-2.373-9.346
		c0.82-3.867,2.91-7.08,6.27-9.639c3.359-2.559,7.764-3.838,13.213-3.838c4.551,0,8.174,1.206,10.869,3.618
		c2.695,2.413,3.633,5.914,2.812,10.503h-8.672c0.41-2.597-0.322-4.443-2.197-5.537c-1.25-0.722-2.92-1.084-5.01-1.084
		c-2.325,0-4.282,0.469-5.874,1.406c-1.592,0.938-2.563,2.246-2.915,3.926c-0.333,1.543,0.107,2.695,1.318,3.457
		c0.762,0.508,2.509,1.104,5.244,1.787l7.061,1.787c3.086,0.781,5.322,1.827,6.709,3.135c2.148,2.032,2.812,4.971,1.992,8.818
		c-0.84,3.945-3.047,7.222-6.621,9.829s-8.115,3.911-13.623,3.911c-5.625,0-9.775-1.284-12.451-3.853
		c-2.676-2.568-3.535-6.098-2.578-10.591H456.254z"/>
	<path fill="#FFFFFF" d="M527.475,143.917l-1.641,7.646h-12.92l-7.529,35.537h-9.082l7.529-35.537h-12.979l1.641-7.646H527.475z"/>
</g>
<g>
	<path fill="#FFFFFF" d="M440.735,208.345l-0.312,1.488h-6.072l0.312-1.488H440.735z"/>
	<path fill="#FFFFFF" d="M444.263,198.049h12.576l-0.288,1.392h-5.472l-3.384,15.888h-1.632l3.384-15.888h-5.472L444.263,198.049z"
		/>
	<path fill="#FFFFFF" d="M455.471,215.329l3.672-17.28h1.632l-1.584,7.416h10.224l1.584-7.416h1.632l-3.672,17.28h-1.632l1.8-8.472
		h-10.224l-1.8,8.472H455.471z"/>
	<path fill="#FFFFFF" d="M472.822,215.329l3.672-17.28h11.496l-0.288,1.392h-9.864l-1.344,6.24h8.904l-0.288,1.392h-8.904
		l-1.464,6.864h10.104l-0.288,1.392H472.822z"/>
	<path fill="#FFFFFF" d="M494.686,206.377l6.984-8.328h1.896l-8.328,9.744l-1.608,7.536h-1.632l1.584-7.416l-4.08-9.864h1.872
		L494.686,206.377z"/>
</g>
<g>
	<path fill="#FFFFFF" d="M507.388,217.571h6.262l3.472,27.29l15.007-27.29h6.196l-6.855,32.278h-4.153l4.043-19.05
		c0.132-0.659,0.377-1.75,0.736-3.274c0.358-1.523,0.721-3.157,1.087-4.9l-14.985,27.224h-4.329l-3.494-27.224l-0.22,0.989
		c-0.161,0.791-0.396,1.996-0.703,3.614c-0.308,1.619-0.542,2.809-0.703,3.571l-4.043,19.05h-4.175L507.388,217.571z"/>
	<path fill="#FFFFFF" d="M545.972,217.571h4.417l-6.855,32.278h-4.417L545.972,217.571z"/>
	<path fill="#FFFFFF" d="M553.399,249.849h-5.273l15.073-16.545l-7.493-15.732h5.471l5.603,12.349l10.811-12.349h5.208
		l-14.172,15.732l7.844,16.545h-5.427l-5.889-13.271L553.399,249.849z"/>
</g>
<g>
	<path fill="#FFFFFF" d="M604.75,251.234l0.024-0.042l-9.489-13.515l0.84-1.455l10.86,15.749l-0.899,1.559l-13.604-6.967
		l-0.023,0.042l9.595,13.909l-0.9,1.559l-15.36-7.954l0.816-1.413l13.232,7.03l0.024-0.041l-9.369-13.724l0.912-1.58L604.75,251.234
		z"/>
	<path fill="#FFFFFF" d="M610.682,245.569l-13.129-11.819l0.816-1.414l13.128,11.82L610.682,245.569z"/>
	<path fill="#FFFFFF" d="M599.821,229.821l6.288-10.891l1.061,0.945l-2.736,4.738l12.067,10.875l-0.815,1.413l-12.067-10.875
		l-2.736,4.739L599.821,229.821z"/>
	<path fill="#FFFFFF" d="M620.389,228.755l-13.128-11.819l0.816-1.414l5.63,5.08l5.112-8.854l-5.631-5.079l0.816-1.414l13.128,11.82
		l-0.815,1.414l-6.437-5.795l-5.112,8.854l6.437,5.795L620.389,228.755z"/>
</g>
<line fill="none" stroke="#FFFFFF" stroke-width="7.2" stroke-miterlimit="10" x1="597.642" y1="291.006" x2="878.877" y2="291.006"/>
<g>
	<path fill="#FFFFFF" d="M661.16,174.876h24.809l14.899,105.08h-23.811l-2.21-21.601h-38.71l-11.834,21.601h-22.955L661.16,174.876z
		 M645.904,240.249h26.662l-4.349-41.348L645.904,240.249z"/>
	<path fill="#FFFFFF" d="M736.513,174.876h21.957l-18.321,86.188h52.041l-3.992,18.892h-73.998L736.513,174.876z"/>
	<path fill="#FFFFFF" d="M825.695,174.876h21.957l-18.321,86.188h52.041l-3.992,18.892h-73.998L825.695,174.876z"/>
</g>
<g>
	<path fill="#FFFFFF" d="M921.682,261.736c-0.054-2.453-0.727-4.2-2.021-5.24c-1.293-1.04-3.166-1.56-5.619-1.56
		c-1.734,0-3.308,0.347-4.721,1.04c-1.413,0.694-2.646,1.627-3.699,2.8c-1.055,1.174-1.94,2.527-2.66,4.06
		c-0.721,1.534-1.254,3.154-1.601,4.86c-0.347,1.6-0.52,3.174-0.52,4.72c0,1.547,0.26,2.927,0.78,4.14
		c0.52,1.214,1.353,2.194,2.5,2.94c1.146,0.747,2.706,1.12,4.68,1.12c1.227,0,2.386-0.2,3.479-0.6c1.094-0.4,2.101-0.953,3.021-1.66
		s1.74-1.54,2.46-2.5s1.333-2.013,1.84-3.16h2.84c-0.613,1.387-1.359,2.7-2.24,3.94c-0.88,1.24-1.913,2.327-3.1,3.26
		c-1.187,0.934-2.554,1.673-4.1,2.22c-1.547,0.546-3.28,0.82-5.2,0.82c-2.214,0-4.021-0.407-5.42-1.22
		c-1.4-0.813-2.454-1.913-3.16-3.3c-0.707-1.387-1.094-2.993-1.16-4.82c-0.066-1.826,0.126-3.766,0.58-5.82
		c0.586-2.747,1.42-5.08,2.5-7s2.347-3.486,3.8-4.7c1.453-1.213,3.054-2.093,4.8-2.64c1.747-0.546,3.58-0.82,5.5-0.82
		c2.96,0,5.28,0.774,6.96,2.32c1.681,1.547,2.44,3.814,2.28,6.8H921.682z"/>
	<path fill="#FFFFFF" d="M925.762,282.176l6.12-28.8h2.72l-5.64,26.48h15.439l-0.479,2.32H925.762z"/>
	<path fill="#FFFFFF" d="M945.36,282.176l17.44-28.8h3.08l4.92,28.8h-2.8l-1.4-9.04h-13.12l-5.319,9.04H945.36z M954.881,270.816
		h11.28l-2.4-15.12L954.881,270.816z"/>
	<path fill="#FFFFFF" d="M977.641,273.576c-0.16,1.28-0.107,2.367,0.16,3.26c0.266,0.894,0.706,1.62,1.319,2.18
		s1.373,0.967,2.28,1.22c0.906,0.254,1.906,0.38,3,0.38c1.28,0,2.42-0.16,3.42-0.48s1.854-0.753,2.561-1.3
		c0.706-0.546,1.279-1.18,1.72-1.9c0.439-0.72,0.74-1.48,0.899-2.28c0.24-1.12,0.181-2.026-0.18-2.72
		c-0.36-0.693-0.907-1.26-1.64-1.7c-0.734-0.44-1.594-0.793-2.58-1.06c-0.987-0.266-2-0.526-3.04-0.78s-2.054-0.553-3.04-0.9
		c-0.987-0.346-1.827-0.813-2.521-1.4c-0.693-0.586-1.193-1.34-1.5-2.26s-0.313-2.086-0.02-3.5c0.213-0.986,0.626-1.946,1.24-2.88
		c0.613-0.933,1.399-1.76,2.359-2.48c0.96-0.72,2.101-1.293,3.42-1.72c1.32-0.426,2.78-0.64,4.381-0.64
		c1.626,0,2.993,0.227,4.1,0.68c1.106,0.454,1.979,1.074,2.62,1.86c0.64,0.787,1.053,1.7,1.24,2.74
		c0.186,1.04,0.146,2.146-0.12,3.32h-2.601c0.24-1.093,0.246-2.04,0.021-2.84c-0.228-0.8-0.607-1.453-1.141-1.96
		c-0.533-0.506-1.206-0.88-2.02-1.12c-0.813-0.24-1.674-0.36-2.58-0.36c-1.387,0-2.594,0.194-3.62,0.58
		c-1.026,0.387-1.887,0.887-2.58,1.5c-0.693,0.614-1.227,1.294-1.6,2.04c-0.374,0.747-0.574,1.494-0.601,2.24
		c-0.054,0.934,0.153,1.68,0.62,2.24s1.087,1.02,1.86,1.38c0.773,0.36,1.653,0.653,2.64,0.88s1.986,0.467,3,0.72
		c1.014,0.254,1.986,0.554,2.92,0.9s1.721,0.813,2.36,1.4c0.64,0.587,1.1,1.34,1.38,2.26s0.273,2.074-0.02,3.46
		c-0.561,2.667-1.92,4.734-4.08,6.2s-4.907,2.2-8.24,2.2c-1.494,0-2.84-0.193-4.04-0.58s-2.18-0.973-2.94-1.76
		c-0.76-0.786-1.273-1.76-1.539-2.92c-0.268-1.16-0.24-2.526,0.079-4.1H977.641z"/>
	<path fill="#FFFFFF" d="M1002.081,273.576c-0.16,1.28-0.107,2.367,0.16,3.26c0.266,0.894,0.706,1.62,1.319,2.18
		s1.373,0.967,2.28,1.22c0.906,0.254,1.906,0.38,3,0.38c1.28,0,2.42-0.16,3.42-0.48s1.854-0.753,2.561-1.3
		c0.706-0.546,1.279-1.18,1.72-1.9c0.439-0.72,0.74-1.48,0.899-2.28c0.24-1.12,0.181-2.026-0.18-2.72
		c-0.36-0.693-0.907-1.26-1.64-1.7c-0.734-0.44-1.594-0.793-2.58-1.06c-0.987-0.266-2-0.526-3.04-0.78s-2.054-0.553-3.04-0.9
		c-0.987-0.346-1.827-0.813-2.521-1.4c-0.693-0.586-1.193-1.34-1.5-2.26s-0.313-2.086-0.02-3.5c0.213-0.986,0.626-1.946,1.24-2.88
		c0.613-0.933,1.399-1.76,2.359-2.48c0.96-0.72,2.101-1.293,3.42-1.72c1.32-0.426,2.78-0.64,4.381-0.64
		c1.626,0,2.993,0.227,4.1,0.68c1.106,0.454,1.979,1.074,2.62,1.86c0.64,0.787,1.053,1.7,1.24,2.74
		c0.186,1.04,0.146,2.146-0.12,3.32h-2.601c0.24-1.093,0.246-2.04,0.021-2.84c-0.228-0.8-0.607-1.453-1.141-1.96
		c-0.533-0.506-1.206-0.88-2.02-1.12c-0.813-0.24-1.674-0.36-2.58-0.36c-1.387,0-2.594,0.194-3.62,0.58
		c-1.026,0.387-1.887,0.887-2.58,1.5c-0.693,0.614-1.227,1.294-1.6,2.04c-0.374,0.747-0.574,1.494-0.601,2.24
		c-0.054,0.934,0.153,1.68,0.62,2.24s1.087,1.02,1.86,1.38c0.773,0.36,1.653,0.653,2.64,0.88s1.986,0.467,3,0.72
		c1.014,0.254,1.986,0.554,2.92,0.9s1.721,0.813,2.36,1.4c0.64,0.587,1.1,1.34,1.38,2.26s0.273,2.074-0.02,3.46
		c-0.561,2.667-1.92,4.734-4.08,6.2s-4.907,2.2-8.24,2.2c-1.494,0-2.84-0.193-4.04-0.58s-2.18-0.973-2.94-1.76
		c-0.76-0.786-1.273-1.76-1.539-2.92c-0.268-1.16-0.24-2.526,0.079-4.1H1002.081z"/>
	<path fill="#FFFFFF" d="M1023.561,282.176l6.12-28.8h19.159l-0.479,2.32h-16.44l-2.239,10.4h14.84l-0.48,2.32h-14.84l-2.439,11.44
		h16.84l-0.48,2.32H1023.561z"/>
	<path fill="#FFFFFF" d="M1050.96,273.576c-0.16,1.28-0.107,2.367,0.16,3.26c0.266,0.894,0.706,1.62,1.319,2.18
		s1.373,0.967,2.28,1.22c0.906,0.254,1.906,0.38,3,0.38c1.28,0,2.42-0.16,3.42-0.48s1.854-0.753,2.561-1.3
		c0.706-0.546,1.279-1.18,1.72-1.9c0.439-0.72,0.74-1.48,0.899-2.28c0.24-1.12,0.181-2.026-0.18-2.72
		c-0.36-0.693-0.907-1.26-1.64-1.7c-0.734-0.44-1.594-0.793-2.58-1.06c-0.987-0.266-2-0.526-3.04-0.78s-2.054-0.553-3.04-0.9
		c-0.987-0.346-1.827-0.813-2.521-1.4c-0.693-0.586-1.193-1.34-1.5-2.26s-0.313-2.086-0.02-3.5c0.213-0.986,0.626-1.946,1.24-2.88
		c0.613-0.933,1.399-1.76,2.359-2.48c0.96-0.72,2.101-1.293,3.42-1.72c1.32-0.426,2.78-0.64,4.381-0.64
		c1.626,0,2.993,0.227,4.1,0.68c1.106,0.454,1.979,1.074,2.62,1.86c0.64,0.787,1.053,1.7,1.24,2.74
		c0.186,1.04,0.146,2.146-0.12,3.32h-2.601c0.24-1.093,0.246-2.04,0.021-2.84c-0.228-0.8-0.607-1.453-1.141-1.96
		c-0.533-0.506-1.206-0.88-2.02-1.12c-0.813-0.24-1.674-0.36-2.58-0.36c-1.387,0-2.594,0.194-3.62,0.58
		c-1.026,0.387-1.887,0.887-2.58,1.5c-0.693,0.614-1.227,1.294-1.6,2.04c-0.374,0.747-0.574,1.494-0.601,2.24
		c-0.054,0.934,0.153,1.68,0.62,2.24s1.087,1.02,1.86,1.38c0.773,0.36,1.653,0.653,2.64,0.88s1.986,0.467,3,0.72
		c1.014,0.254,1.986,0.554,2.92,0.9s1.721,0.813,2.36,1.4c0.64,0.587,1.1,1.34,1.38,2.26s0.273,2.074-0.02,3.46
		c-0.561,2.667-1.92,4.734-4.08,6.2s-4.907,2.2-8.24,2.2c-1.494,0-2.84-0.193-4.04-0.58s-2.18-0.973-2.94-1.76
		c-0.76-0.786-1.273-1.76-1.539-2.92c-0.268-1.16-0.24-2.526,0.079-4.1H1050.96z"/>
</g>
<g>
	<path fill="#FFFFFF" d="M974.514,331.945c0.088,1.628,0.458,2.949,1.11,3.965c1.241,1.901,3.43,2.852,6.565,2.852
		c1.405,0,2.685-0.208,3.839-0.625c2.232-0.808,3.349-2.253,3.349-4.336c0-1.562-0.473-2.676-1.419-3.34
		c-0.959-0.651-2.46-1.218-4.503-1.699l-3.766-0.879c-2.46-0.573-4.2-1.204-5.223-1.895c-1.766-1.198-2.648-2.988-2.648-5.371
		c0-2.578,0.868-4.694,2.604-6.348c1.736-1.653,4.194-2.48,7.375-2.48c2.927,0,5.413,0.726,7.46,2.178
		c2.046,1.452,3.069,3.772,3.069,6.963h-3.652c-0.188-1.536-0.587-2.715-1.198-3.535c-1.137-1.497-3.065-2.246-5.786-2.246
		c-2.197,0-3.776,0.481-4.738,1.445c-0.961,0.964-1.441,2.083-1.441,3.359c0,1.406,0.567,2.435,1.703,3.086
		c0.744,0.417,2.429,0.938,5.053,1.562l3.898,0.918c1.88,0.442,3.331,1.048,4.353,1.816c1.767,1.341,2.649,3.288,2.649,5.84
		c0,3.177-1.127,5.449-3.381,6.816s-4.873,2.051-7.857,2.051c-3.479,0-6.203-0.911-8.171-2.734c-1.97-1.81-2.935-4.265-2.896-7.363
		H974.514z"/>
	<path fill="#FFFFFF" d="M1022.287,316.613c1.901,2.539,2.852,5.788,2.852,9.746c0,4.284-1.087,7.845-3.262,10.684
		c-2.552,3.333-6.191,5-10.918,5c-4.414,0-7.884-1.458-10.41-4.375c-2.253-2.812-3.379-6.367-3.379-10.664
		c0-3.88,0.964-7.2,2.891-9.961c2.474-3.542,6.133-5.312,10.977-5.312C1016.103,311.73,1019.853,313.358,1022.287,316.613z
		 M1018.859,334.901c1.53-2.456,2.295-5.281,2.295-8.474c0-3.376-0.882-6.093-2.646-8.151c-1.765-2.06-4.177-3.089-7.236-3.089
		c-2.969,0-5.391,1.02-7.266,3.06c-1.875,2.039-2.812,5.046-2.812,9.021c0,3.181,0.804,5.861,2.412,8.044s4.216,3.274,7.822,3.274
		C1014.853,338.586,1017.329,337.357,1018.859,334.901z"/>
	<path fill="#FFFFFF" d="M1050.061,314.602c1.981,1.914,3.082,4.089,3.301,6.523h-3.789c-0.422-1.849-1.263-3.313-2.522-4.395
		s-3.027-1.621-5.304-1.621c-2.774,0-5.016,0.994-6.723,2.98c-1.707,1.988-2.561,5.034-2.561,9.139c0,3.362,0.771,6.09,2.312,8.182
		c1.541,2.091,3.84,3.137,6.896,3.137c2.814,0,4.957-1.101,6.428-3.301c0.78-1.159,1.362-2.683,1.746-4.57h3.789
		c-0.335,3.021-1.441,5.554-3.32,7.598c-2.253,2.461-5.291,3.691-9.113,3.691c-3.295,0-6.062-1.01-8.302-3.029
		c-2.947-2.671-4.421-6.795-4.421-12.371c0-4.234,1.106-7.707,3.32-10.417c2.394-2.944,5.694-4.417,9.903-4.417
		C1045.292,311.73,1048.078,312.688,1050.061,314.602z"/>
	<path fill="#FFFFFF" d="M1059.533,312.512h3.926v28.691h-3.926V312.512z"/>
	<path fill="#FFFFFF" d="M1070.139,312.512h20.82v3.516h-17.031v8.711h15.742v3.32h-15.742v9.727h17.324v3.418h-21.113V312.512z"/>
	<path fill="#FFFFFF" d="M1117.307,312.512v3.418h-9.668v25.273h-3.926V315.93h-9.668v-3.418H1117.307z"/>
	<path fill="#FFFFFF" d="M1118.667,312.512h4.532l8.248,13.789l8.248-13.789h4.571l-10.866,17.129v11.562h-3.887v-11.562
		L1118.667,312.512z"/>
</g>
<g>
	<path fill="#FFFFFF" d="M958.681,304.495c-1.305,1.344-3.191,2.016-5.66,2.016s-4.355-0.672-5.66-2.016
		c-1.75-1.648-2.625-4.023-2.625-7.125c0-3.164,0.875-5.539,2.625-7.125c1.305-1.344,3.191-2.016,5.66-2.016s4.355,0.672,5.66,2.016
		c1.742,1.586,2.613,3.961,2.613,7.125C961.294,300.472,960.423,302.847,958.681,304.495z M956.425,301.87
		c0.84-1.055,1.26-2.555,1.26-4.5c0-1.938-0.42-3.436-1.26-4.494s-1.975-1.588-3.404-1.588s-2.57,0.527-3.422,1.582
		s-1.277,2.555-1.277,4.5s0.426,3.445,1.277,4.5s1.992,1.582,3.422,1.582S955.585,302.925,956.425,301.87z"/>
	<path fill="#FFFFFF" d="M964.048,288.78h12.316v3.035h-8.73v3.973h7.652v3h-7.652v7.242h-3.586V288.78z"/>
</g>
<g>
	<path fill="#FFFFFF" d="M1039.685,373.554c1.289-1.855,3.398-3.691,6.328-5.509l0.908-0.557c-1.25-1.408-2.217-2.846-2.9-4.312
		c-0.684-1.467-1.025-2.993-1.025-4.577c0-3.148,1.067-5.608,3.202-7.378s4.901-2.655,8.302-2.655c3.103,0,5.667,0.906,7.693,2.718
		c2.026,1.812,3.039,4.13,3.039,6.95c0,2.548-0.607,4.614-1.822,6.201s-2.998,3.057-5.349,4.408l6.205,7.524
		c0.712-1.016,1.261-2.119,1.646-3.31c0.386-1.191,0.588-2.451,0.608-3.779h7.412c-0.137,2.625-0.77,5.28-1.899,7.964
		c-0.624,1.509-1.637,3.174-3.039,4.995l7.839,9.365h-10.107l-3.004-3.658c-1.461,1.355-2.823,2.356-4.086,3.005
		c-2.251,1.158-4.848,1.737-7.789,1.737c-4.422,0-7.877-1.289-10.364-3.867s-3.731-5.44-3.731-8.586
		C1037.751,377.637,1038.396,375.41,1039.685,373.554z M1047.845,383.896c1.183,1.192,2.698,1.789,4.547,1.789
		c1.391,0,2.707-0.313,3.949-0.941s2.251-1.328,3.026-2.101l-8.078-9.836c-2.115,1.389-3.513,2.61-4.195,3.667
		c-0.682,1.056-1.022,2.22-1.022,3.49C1046.071,381.394,1046.662,382.703,1047.845,383.896z M1051.521,360.767
		c0.365,0.567,1.154,1.575,2.37,3.023c1.216-0.822,2.087-1.517,2.613-2.084c1.013-1.057,1.52-2.202,1.52-3.436
		c0-0.9-0.304-1.702-0.912-2.407c-0.607-0.704-1.529-1.057-2.765-1.057c-0.77,0-1.489,0.205-2.157,0.616
		c-1.014,0.607-1.52,1.566-1.52,2.878C1050.671,359.083,1050.954,359.905,1051.521,360.767z"/>
</g>
<g>
	<path fill="#FFFFFF" d="M982.344,425.403h13.624v1.508h-5.928v17.212h-1.769v-17.212h-5.928V425.403z"/>
	<path fill="#FFFFFF" d="M998.464,444.123v-18.72h1.768v8.034h11.076v-8.034h1.769v18.72h-1.769v-9.178h-11.076v9.178H998.464z"/>
	<path fill="#FFFFFF" d="M1017.262,444.123v-18.72h12.453v1.508h-10.686v6.76h9.646v1.508h-9.646v7.437h10.946v1.508H1017.262z"/>
	<path fill="#FFFFFF" d="M1034.889,435.621v8.502l-1.768-0.026v-18.693h7.332c2.062,0,3.64,0.386,4.731,1.156
		c1.093,0.771,1.639,2.024,1.639,3.758c0,1.179-0.238,2.114-0.715,2.808c-0.478,0.693-1.253,1.283-2.327,1.768
		c0.555,0.191,0.987,0.469,1.3,0.832c0.312,0.364,0.546,0.78,0.702,1.248c0.156,0.469,0.255,0.962,0.299,1.482
		c0.043,0.52,0.073,1.022,0.091,1.508c0.018,0.711,0.048,1.3,0.091,1.769c0.043,0.468,0.096,0.849,0.156,1.144
		s0.134,0.524,0.221,0.689c0.087,0.164,0.191,0.29,0.312,0.377v0.155l-1.95,0.026c-0.19-0.312-0.325-0.745-0.403-1.3
		c-0.077-0.555-0.139-1.136-0.182-1.742s-0.078-1.196-0.104-1.768c-0.026-0.572-0.074-1.04-0.144-1.404
		c-0.104-0.503-0.272-0.905-0.507-1.209c-0.234-0.303-0.516-0.533-0.845-0.689c-0.33-0.155-0.698-0.26-1.105-0.312
		s-0.828-0.078-1.261-0.078H1034.889z M1040.401,434.113c0.658,0,1.27-0.069,1.833-0.208c0.562-0.139,1.053-0.359,1.469-0.663
		c0.416-0.303,0.745-0.689,0.988-1.157c0.242-0.468,0.363-1.031,0.363-1.689c0-0.693-0.126-1.266-0.377-1.717
		c-0.251-0.45-0.589-0.806-1.014-1.065s-0.91-0.442-1.456-0.546c-0.546-0.104-1.114-0.156-1.703-0.156h-5.616v7.202H1040.401z"/>
	<path fill="#FFFFFF" d="M1050.489,444.123v-18.72h12.453v1.508h-10.686v6.76h9.646v1.508h-9.646v7.437h10.946v1.508H1050.489z"/>
	<path fill="#FFFFFF" d="M1066.192,444.123v-18.72h12.064v1.508h-10.296v6.76h9.359v1.508h-9.359v8.944H1066.192z"/>
	<path fill="#FFFFFF" d="M1080.103,434.789c0-1.369,0.187-2.652,0.559-3.848c0.373-1.196,0.924-2.24,1.651-3.134
		c0.729-0.893,1.629-1.599,2.704-2.118c1.074-0.521,2.314-0.78,3.718-0.78c1.456,0,2.734,0.256,3.835,0.767
		c1.101,0.512,2.02,1.214,2.756,2.106c0.737,0.893,1.291,1.941,1.664,3.146c0.373,1.205,0.56,2.492,0.56,3.861
		c0,1.352-0.187,2.622-0.56,3.809c-0.373,1.188-0.923,2.228-1.65,3.12c-0.729,0.894-1.639,1.6-2.73,2.119
		c-1.092,0.521-2.357,0.78-3.796,0.78s-2.704-0.26-3.796-0.78c-1.092-0.52-2.002-1.226-2.73-2.119
		c-0.728-0.893-1.273-1.933-1.638-3.12C1080.284,437.411,1080.103,436.141,1080.103,434.789z M1088.839,443.109
		c1.213,0,2.257-0.229,3.133-0.689c0.875-0.459,1.595-1.07,2.158-1.833c0.562-0.763,0.979-1.646,1.248-2.652
		c0.269-1.005,0.402-2.054,0.402-3.146c0-1.3-0.16-2.466-0.48-3.497c-0.321-1.031-0.784-1.911-1.392-2.639
		c-0.606-0.729-1.343-1.283-2.21-1.664c-0.866-0.381-1.837-0.572-2.912-0.572c-1.195,0-2.231,0.234-3.106,0.702
		c-0.876,0.468-1.595,1.088-2.158,1.859s-0.979,1.659-1.248,2.664c-0.269,1.006-0.402,2.055-0.402,3.146
		c0,1.109,0.134,2.167,0.402,3.172c0.269,1.006,0.685,1.89,1.248,2.652s1.282,1.369,2.158,1.819
		C1086.555,442.884,1087.607,443.109,1088.839,443.109z"/>
	<path fill="#FFFFFF" d="M1102.801,435.621v8.502l-1.768-0.026v-18.693h7.332c2.062,0,3.64,0.386,4.731,1.156
		c1.093,0.771,1.639,2.024,1.639,3.758c0,1.179-0.238,2.114-0.715,2.808c-0.478,0.693-1.253,1.283-2.327,1.768
		c0.555,0.191,0.987,0.469,1.3,0.832c0.312,0.364,0.546,0.78,0.702,1.248c0.156,0.469,0.255,0.962,0.299,1.482
		c0.043,0.52,0.073,1.022,0.091,1.508c0.018,0.711,0.048,1.3,0.091,1.769c0.043,0.468,0.096,0.849,0.156,1.144
		s0.134,0.524,0.221,0.689c0.087,0.164,0.191,0.29,0.312,0.377v0.155l-1.95,0.026c-0.19-0.312-0.325-0.745-0.403-1.3
		c-0.077-0.555-0.139-1.136-0.182-1.742s-0.078-1.196-0.104-1.768c-0.026-0.572-0.074-1.04-0.144-1.404
		c-0.104-0.503-0.272-0.905-0.507-1.209c-0.234-0.303-0.516-0.533-0.845-0.689c-0.33-0.155-0.698-0.26-1.105-0.312
		s-0.828-0.078-1.261-0.078H1102.801z M1108.313,434.113c0.658,0,1.27-0.069,1.833-0.208c0.562-0.139,1.053-0.359,1.469-0.663
		c0.416-0.303,0.745-0.689,0.988-1.157c0.242-0.468,0.363-1.031,0.363-1.689c0-0.693-0.126-1.266-0.377-1.717
		c-0.251-0.45-0.589-0.806-1.014-1.065s-0.91-0.442-1.456-0.546c-0.546-0.104-1.114-0.156-1.703-0.156h-5.616v7.202H1108.313z"/>
	<path fill="#FFFFFF" d="M1118.401,444.123v-18.72h12.453v1.508h-10.686v6.76h9.646v1.508h-9.646v7.437h10.946v1.508H1118.401z"/>
</g>
<g>
	<path fill="#FFFFFF" d="M1033.072,417.749l6.792-17.28h1.848l6.624,17.28h-1.68l-1.992-5.424h-7.872l-2.04,5.424H1033.072z
		 M1037.344,410.933h6.769l-3.385-9.071L1037.344,410.933z"/>
	<path fill="#FFFFFF" d="M1052.271,409.901v7.848l-1.632-0.024v-17.256h6.769c1.903,0,3.359,0.356,4.367,1.068
		c1.009,0.712,1.513,1.868,1.513,3.468c0,1.089-0.221,1.952-0.66,2.592c-0.44,0.641-1.156,1.185-2.148,1.633
		c0.512,0.176,0.912,0.432,1.2,0.768s0.504,0.72,0.648,1.152c0.144,0.432,0.235,0.888,0.275,1.367
		c0.04,0.48,0.068,0.944,0.084,1.393c0.016,0.656,0.044,1.2,0.084,1.632s0.088,0.784,0.145,1.056
		c0.056,0.272,0.123,0.484,0.204,0.637c0.079,0.152,0.176,0.268,0.288,0.348v0.144l-1.801,0.024c-0.176-0.288-0.3-0.688-0.372-1.2
		c-0.071-0.512-0.128-1.048-0.168-1.607c-0.04-0.561-0.071-1.104-0.096-1.633c-0.024-0.527-0.068-0.96-0.132-1.296
		c-0.096-0.464-0.252-0.836-0.468-1.115c-0.217-0.28-0.477-0.492-0.78-0.637c-0.304-0.144-0.645-0.239-1.021-0.288
		c-0.376-0.048-0.764-0.071-1.163-0.071H1052.271z M1057.359,408.509c0.608,0,1.172-0.063,1.692-0.191
		c0.52-0.128,0.972-0.332,1.356-0.612c0.384-0.28,0.688-0.636,0.911-1.068c0.225-0.432,0.336-0.951,0.336-1.56
		c0-0.64-0.116-1.168-0.348-1.584c-0.232-0.416-0.544-0.744-0.936-0.984c-0.393-0.24-0.841-0.408-1.345-0.504
		s-1.028-0.144-1.571-0.144h-5.185v6.647H1057.359z"/>
	<path fill="#FFFFFF" d="M1066.672,417.749v-17.28h11.496v1.393h-9.864v6.239h8.904v1.393h-8.904v6.864h10.104v1.392H1066.672z"/>
</g>
<g>
	<path fill="#FFFFFF" d="M1508.419,527.344h4.412l-0.343,1.626h-4.412L1508.419,527.344z"/>
	<path fill="#FFFFFF" d="M1525.259,533.136l-1.099,1.063l-1.679-1.521c-0.533,0.264-1.098,0.475-1.691,0.633
		c-0.596,0.158-1.224,0.237-1.886,0.237c-2.004,0-3.434-0.656-4.289-1.969c-0.732-1.277-0.894-2.877-0.483-4.799
		c0.369-1.746,1.119-3.24,2.25-4.482c1.453-1.594,3.27-2.391,5.449-2.391c2.279,0,3.812,0.732,4.597,2.197
		c0.615,1.143,0.732,2.604,0.352,4.386c-0.176,0.832-0.448,1.632-0.817,2.399c-0.557,1.172-1.283,2.127-2.18,2.865L1525.259,533.136
		z M1521.374,531.615l-1.178-1.107l1.107-1.081l1.406,1.31c0.662-0.609,1.169-1.292,1.521-2.048s0.601-1.479,0.747-2.171
		c0.322-1.518,0.186-2.739-0.408-3.665c-0.596-0.926-1.581-1.389-2.958-1.389c-1.395,0-2.595,0.443-3.599,1.332
		c-1.006,0.887-1.704,2.254-2.097,4.1c-0.328,1.553-0.199,2.789,0.387,3.709s1.635,1.38,3.146,1.38c0.363,0,0.709-0.024,1.037-0.075
		C1520.814,531.86,1521.11,531.762,1521.374,531.615z"/>
	<path fill="#FFFFFF" d="M1530.472,523.758l-1.327,6.249c-0.1,0.48-0.105,0.873-0.018,1.178c0.158,0.562,0.621,0.844,1.389,0.844
		c1.102,0,1.957-0.492,2.566-1.477c0.328-0.527,0.589-1.251,0.782-2.171l0.984-4.623h1.582l-1.995,9.413h-1.494l0.308-1.389
		c-0.281,0.357-0.601,0.659-0.958,0.905c-0.709,0.492-1.494,0.738-2.355,0.738c-1.342,0-2.159-0.448-2.452-1.345
		c-0.164-0.48-0.161-1.122,0.009-1.925l1.362-6.398H1530.472z"/>
	<path fill="#FFFFFF" d="M1545.52,525.234c0.217,0.475,0.311,1.028,0.281,1.661c0.006,0.434-0.094,1.125-0.299,2.074h-6.899
		c-0.176,0.955-0.113,1.722,0.189,2.299c0.301,0.577,0.895,0.865,1.779,0.865c0.826,0,1.541-0.272,2.145-0.817
		c0.352-0.316,0.63-0.683,0.835-1.099h1.556c-0.117,0.346-0.336,0.731-0.654,1.156c-0.32,0.425-0.652,0.771-0.998,1.041
		c-0.58,0.469-1.242,0.785-1.986,0.949c-0.404,0.094-0.847,0.141-1.327,0.141c-1.172,0-2.074-0.426-2.707-1.279
		c-0.633-0.852-0.785-2.046-0.457-3.581c0.322-1.512,0.993-2.739,2.013-3.683s2.191-1.415,3.516-1.415
		c0.668,0,1.283,0.157,1.846,0.47C1544.913,524.331,1545.303,524.736,1545.52,525.234z M1544.14,527.713
		c0.082-0.686,0.05-1.233-0.097-1.644c-0.27-0.762-0.911-1.143-1.925-1.143c-0.727,0-1.392,0.263-1.995,0.787
		s-1.008,1.19-1.213,1.999H1544.14z"/>
	<path fill="#FFFFFF" d="M1555.17,525.234c0.217,0.475,0.311,1.028,0.281,1.661c0.006,0.434-0.094,1.125-0.299,2.074h-6.899
		c-0.176,0.955-0.113,1.722,0.189,2.299c0.301,0.577,0.895,0.865,1.779,0.865c0.826,0,1.541-0.272,2.145-0.817
		c0.352-0.316,0.63-0.683,0.835-1.099h1.556c-0.117,0.346-0.336,0.731-0.654,1.156c-0.32,0.425-0.652,0.771-0.998,1.041
		c-0.58,0.469-1.242,0.785-1.986,0.949c-0.404,0.094-0.847,0.141-1.327,0.141c-1.172,0-2.074-0.426-2.707-1.279
		c-0.633-0.852-0.785-2.046-0.457-3.581c0.322-1.512,0.993-2.739,2.013-3.683s2.191-1.415,3.516-1.415
		c0.668,0,1.283,0.157,1.846,0.47C1554.563,524.331,1554.953,524.736,1555.17,525.234z M1553.79,527.713
		c0.082-0.686,0.05-1.233-0.097-1.644c-0.27-0.762-0.911-1.143-1.925-1.143c-0.727,0-1.392,0.263-1.995,0.787
		s-1.008,1.19-1.213,1.999H1553.79z"/>
	<path fill="#FFFFFF" d="M1557.842,523.758h1.503l-0.281,1.336c0.562-0.551,1.117-0.946,1.666-1.187
		c0.547-0.24,1.126-0.36,1.735-0.36c1.336,0,2.139,0.466,2.408,1.397c0.152,0.51,0.129,1.239-0.07,2.188l-1.283,6.038h-1.608
		l1.257-5.933c0.123-0.574,0.138-1.037,0.044-1.389c-0.158-0.586-0.606-0.879-1.345-0.879c-0.375,0-0.691,0.038-0.949,0.114
		c-0.463,0.129-0.899,0.387-1.31,0.773c-0.328,0.311-0.566,0.632-0.717,0.963c-0.148,0.331-0.288,0.804-0.417,1.419l-1.046,4.931
		h-1.582L1557.842,523.758z"/>
	<path fill="#FFFFFF" d="M1574.129,520.26l1.371,10.995l6.003-10.995h1.96l-7.453,12.911h-1.854l-1.96-12.911H1574.129z"/>
	<path fill="#FFFFFF" d="M1583.482,523.802h1.608l-1.986,9.369h-1.608L1583.482,523.802z M1584.238,520.26h1.608l-0.387,1.793
		h-1.608L1584.238,520.26z"/>
	<path fill="#FFFFFF" d="M1593.881,526.922h-1.538c0.029-0.58-0.082-1.062-0.334-1.446c-0.252-0.383-0.747-0.575-1.485-0.575
		c-1.008,0-1.834,0.492-2.479,1.477c-0.416,0.639-0.724,1.427-0.923,2.364c-0.205,0.943-0.176,1.737,0.088,2.382
		s0.823,0.967,1.679,0.967c0.656,0,1.219-0.2,1.688-0.603c0.469-0.4,0.85-0.95,1.143-1.647h1.538
		c-0.439,1.248-1.072,2.161-1.898,2.737c-0.826,0.578-1.787,0.866-2.883,0.866c-1.23,0-2.117-0.449-2.658-1.349
		c-0.543-0.899-0.67-2.023-0.383-3.371c0.352-1.652,1.026-2.938,2.025-3.858s2.12-1.38,3.362-1.38c1.061,0,1.868,0.258,2.421,0.773
		C1593.798,524.774,1594.01,525.662,1593.881,526.922z"/>
	<path fill="#FFFFFF" d="M1596.649,521.13h1.6l-0.562,2.628h1.503l-0.272,1.292h-1.503l-1.31,6.144
		c-0.07,0.328-0.006,0.548,0.193,0.659c0.111,0.064,0.311,0.097,0.598,0.097c0.076,0,0.158-0.001,0.246-0.005
		c0.088-0.002,0.193-0.01,0.316-0.021l-0.264,1.248c-0.193,0.053-0.392,0.091-0.593,0.114c-0.203,0.023-0.418,0.035-0.646,0.035
		c-0.738,0-1.199-0.188-1.385-0.567c-0.184-0.377-0.212-0.868-0.083-1.472l1.327-6.231h-1.274l0.272-1.292h1.274L1596.649,521.13z"
		/>
	<path fill="#FFFFFF" d="M1607.602,528.267c-0.322,1.518-0.958,2.771-1.907,3.762s-2.2,1.485-3.753,1.485
		c-1.295,0-2.229-0.438-2.804-1.313s-0.706-2.053-0.396-3.529c0.34-1.582,1.011-2.842,2.013-3.779s2.18-1.406,3.533-1.406
		c1.213,0,2.151,0.404,2.816,1.213S1607.936,526.696,1607.602,528.267z M1605.94,528.311c0.188-0.879,0.199-1.594,0.035-2.145
		c-0.264-0.867-0.94-1.301-2.03-1.301c-0.967,0-1.748,0.369-2.343,1.107s-1.003,1.629-1.226,2.672
		c-0.211,1.002-0.169,1.837,0.128,2.505c0.295,0.668,0.921,1.002,1.876,1.002c1.049,0,1.853-0.396,2.413-1.191
		C1605.353,530.167,1605.735,529.283,1605.94,528.311z"/>
	<path fill="#FFFFFF" d="M1610.124,523.758h1.503l-0.343,1.626c0.188-0.316,0.569-0.701,1.146-1.156
		c0.577-0.453,1.18-0.681,1.807-0.681c0.029,0,0.079,0.003,0.149,0.009s0.188,0.018,0.352,0.035l-0.352,1.67
		c-0.094-0.018-0.179-0.029-0.255-0.035s-0.161-0.009-0.255-0.009c-0.797,0-1.464,0.257-1.999,0.769
		c-0.537,0.514-0.878,1.104-1.024,1.771l-1.143,5.414h-1.582L1610.124,523.758z"/>
	<path fill="#FFFFFF" d="M1615.706,523.802h1.608l-1.986,9.369h-1.608L1615.706,523.802z M1616.462,520.26h1.608l-0.387,1.793
		h-1.608L1616.462,520.26z"/>
	<path fill="#FFFFFF" d="M1623.607,527.467c0.375-0.047,0.653-0.199,0.835-0.457c0.1-0.141,0.176-0.343,0.229-0.606
		c0.117-0.539,0.009-0.93-0.325-1.174c-0.334-0.242-0.858-0.364-1.573-0.364c-0.826,0-1.459,0.223-1.898,0.668
		c-0.246,0.246-0.448,0.612-0.606,1.099h-1.477c0.275-1.16,0.823-1.967,1.644-2.422c0.82-0.453,1.708-0.681,2.663-0.681
		c1.107,0,1.96,0.211,2.558,0.633s0.803,1.078,0.615,1.969l-1.151,5.423c-0.035,0.164-0.03,0.296,0.013,0.396
		c0.045,0.1,0.175,0.149,0.392,0.149c0.07,0,0.15-0.004,0.241-0.014c0.091-0.008,0.189-0.021,0.295-0.039l-0.255,1.169
		c-0.258,0.07-0.452,0.114-0.585,0.132c-0.131,0.018-0.309,0.026-0.531,0.026c-0.545,0-0.899-0.193-1.063-0.58
		c-0.088-0.205-0.117-0.495-0.088-0.87c-0.416,0.422-0.958,0.788-1.626,1.099s-1.365,0.466-2.092,0.466
		c-0.873,0-1.531-0.266-1.973-0.795c-0.443-0.53-0.579-1.194-0.409-1.991c0.188-0.873,0.604-1.55,1.253-2.03
		c0.646-0.48,1.425-0.776,2.333-0.888L1623.607,527.467z M1620.47,532.143c0.557,0,1.125-0.129,1.705-0.387
		c0.967-0.428,1.556-1.128,1.767-2.101l0.264-1.274c-0.217,0.123-0.486,0.226-0.809,0.308s-0.633,0.141-0.932,0.176l-0.984,0.123
		c-0.592,0.076-1.049,0.196-1.371,0.36c-0.545,0.275-0.882,0.715-1.011,1.318c-0.1,0.457-0.011,0.817,0.268,1.081
		S1620.013,532.143,1620.47,532.143z"/>
</g>
<g>
	<defs>
		<rect id="SVGID_3_" width="1728" height="576"/>
	</defs>
	<clipPath id="SVGID_4_">
		<use xlink:href="#SVGID_3_"  overflow="visible"/>
	</clipPath>
	<rect x="0.5" y="0.5" clip-path="url(#SVGID_4_)" fill="none" stroke="#000000" width="1727" height="575"/>
</g>
</svg>
